#N canvas 187 113 1209 765 12;
#X obj 682 628 gain;
#X obj 112 74 tgl 40 0 empty empty empty 17 7 0 10 -262144 -1 -1 0
1;
#X obj 159 86 bng 25 250 50 0 empty empty empty 17 7 0 10 -262144 -1
-1;
#N canvas 208 316 749 499 faust-bubble 0;
#X obj 93 61 inlet;
#X obj 236 35 inlet;
#X text 93 37 freq;
#X text 235 12 metro;
#X text 589 43 gain;
#X obj 175 452 outlet~;
#X obj 306 455 outlet;
#X text 357 453 gain;
#X obj 424 455 outlet;
#X text 475 453 freq;
#X obj 153 345 gain;
#X floatatom 627 229 5 0 0 0 - - -;
#X msg 58 186 freq \$1;
#X obj 153 271 faustgen~ ../source/bubble;
#X msg 232 159 1;
#X msg 233 234 play \$1;
#X msg 254 210 0;
#X obj 252 188 pipe 5;
#X obj 94 91 scale 0 1 10 3000;
#X obj 237 99 bng 15 250 50 0 empty empty empty 17 7 0 10 -262144 -1
-1;
#X obj 236 70 metro 1000;
#X obj 307 31 inlet;
#X obj 391 34 inlet;
#X obj 524 451 outlet;
#X text 575 449 metro;
#X obj 390 62 scale 0 1 1 5000;
#X obj 595 70 loadbang;
#X msg 595 95 1;
#X connect 0 0 18 0;
#X connect 1 0 20 0;
#X connect 10 0 5 0;
#X connect 11 0 10 1;
#X connect 12 0 13 0;
#X connect 13 0 10 0;
#X connect 14 0 15 0;
#X connect 14 0 17 0;
#X connect 15 0 13 0;
#X connect 16 0 15 0;
#X connect 17 0 16 0;
#X connect 18 0 12 0;
#X connect 18 0 8 0;
#X connect 19 0 14 0;
#X connect 20 0 19 0;
#X connect 21 0 19 0;
#X connect 22 0 25 0;
#X connect 25 0 20 1;
#X connect 25 0 23 0;
#X connect 26 0 27 0;
#X connect 27 0 11 0;
#X connect 27 0 6 0;
#X restore 86 193 pd faust-bubble;
#N canvas 0 479 1115 399 osc 1;
#X obj 136 185 outlet;
#X floatatom 133 147 5 0 0 0 - - -;
#X floatatom 389 145 5 0 0 0 - - -;
#X floatatom 270 155 5 0 0 0 - - -;
#X floatatom 516 145 5 0 0 0 - - -;
#X floatatom 653 143 5 0 0 0 - - -;
#X obj 653 119 route /amp1/x;
#X obj 272 184 outlet;
#X obj 391 195 outlet;
#X obj 512 191 outlet;
#X obj 668 188 outlet;
#X obj 513 38 mrpeach/unpackOSC;
#X obj 134 71 receive mosc;
#X obj 581 67 send mosc;
#X obj 133 123 route /freq1;
#X obj 270 126 route /on1;
#X obj 389 121 route /bang1;
#X obj 516 120 route /smetro1;
#X obj 512 14 mrpeach/udpreceive 8082;
#X connect 1 0 0 0;
#X connect 2 0 8 0;
#X connect 3 0 7 0;
#X connect 4 0 9 0;
#X connect 5 0 10 0;
#X connect 6 0 5 0;
#X connect 11 0 13 0;
#X connect 12 0 6 0;
#X connect 12 0 14 0;
#X connect 12 0 15 0;
#X connect 12 0 16 0;
#X connect 12 0 17 0;
#X connect 14 0 1 0;
#X connect 15 0 3 0;
#X connect 16 0 2 0;
#X connect 17 0 4 0;
#X connect 18 0 11 0;
#X restore 86 14 pd osc;
#X obj 86 49 vsl 15 128 0 1 0 0 empty empty empty 0 -9 0 10 -262144
-1 -1 0 1;
#X floatatom 212 227 5 0 0 0 - - -;
#X text 252 225 freq;
#X floatatom 134 227 5 0 0 0 - - -;
#X text 175 224 amp;
#X obj 1259 417 vsl 15 128 0 1 0 0 empty empty empty 0 -9 0 10 -262144
-1 -1 1143 1;
#X text 1278 524 volume;
#X floatatom 1281 547 5 0 0 0 - - -;
#X obj 203 50 vsl 15 128 0 1 0 0 empty empty empty 0 -9 0 10 -262144
-1 -1 0 1;
#X text 39 32 freq;
#X text 200 24 metro;
#X text 112 50 on/off;
#X floatatom 309 231 5 0 0 0 - - -;
#X text 350 229 metro;
#X obj 635 625 gain;
#X obj 468 78 tgl 40 0 empty empty empty 17 7 0 10 -262144 -1 -1 0
1;
#X obj 515 90 bng 25 250 50 0 empty empty empty 17 7 0 10 -262144 -1
-1;
#N canvas 280 285 699 499 faust-bubble 0;
#X obj 93 61 inlet;
#X obj 236 35 inlet;
#X text 93 37 freq;
#X text 235 12 metro;
#X text 589 43 gain;
#X obj 175 452 outlet~;
#X obj 306 455 outlet;
#X text 357 453 gain;
#X obj 424 455 outlet;
#X text 475 453 freq;
#X obj 153 345 gain;
#X floatatom 627 229 5 0 0 0 - - -;
#X msg 58 186 freq \$1;
#X obj 153 271 faustgen~ ../source/bubble;
#X msg 232 159 1;
#X msg 233 234 play \$1;
#X msg 254 210 0;
#X obj 252 188 pipe 5;
#X obj 94 91 scale 0 1 10 3000;
#X obj 237 99 bng 15 250 50 0 empty empty empty 17 7 0 10 -262144 -1
-1;
#X obj 236 70 metro 1000;
#X obj 307 31 inlet;
#X obj 391 34 inlet;
#X obj 524 451 outlet;
#X text 575 449 metro;
#X obj 390 62 scale 0 1 1 5000;
#X obj 595 70 loadbang;
#X msg 595 93 1;
#X connect 0 0 18 0;
#X connect 1 0 20 0;
#X connect 10 0 5 0;
#X connect 11 0 10 1;
#X connect 12 0 13 0;
#X connect 13 0 10 0;
#X connect 14 0 15 0;
#X connect 14 0 17 0;
#X connect 15 0 13 0;
#X connect 16 0 15 0;
#X connect 17 0 16 0;
#X connect 18 0 12 0;
#X connect 18 0 8 0;
#X connect 19 0 14 0;
#X connect 20 0 19 0;
#X connect 21 0 19 0;
#X connect 22 0 25 0;
#X connect 25 0 20 1;
#X connect 25 0 23 0;
#X connect 26 0 27 0;
#X connect 27 0 11 0;
#X connect 27 0 6 0;
#X restore 442 198 pd faust-bubble;
#X obj 442 53 vsl 15 128 0 1 0 0 empty empty empty 0 -9 0 10 -262144
-1 -1 0 1;
#X floatatom 568 231 5 0 0 0 - - -;
#X text 608 229 freq;
#X floatatom 490 231 5 0 0 0 - - -;
#X text 531 228 amp;
#X obj 559 54 vsl 15 128 0 1 0 0 empty empty empty 0 -9 0 10 -262144
-1 -1 0 1;
#X text 395 36 freq;
#X text 556 28 metro;
#X text 468 54 on/off;
#X floatatom 665 235 5 0 0 0 - - -;
#X text 706 233 metro;
#X obj 810 75 tgl 40 0 empty empty empty 17 7 0 10 -262144 -1 -1 0
1;
#X obj 857 87 bng 25 250 50 0 empty empty empty 17 7 0 10 -262144 -1
-1;
#N canvas 146 166 699 499 faust-bubble 0;
#X obj 93 61 inlet;
#X obj 236 35 inlet;
#X text 93 37 freq;
#X text 235 12 metro;
#X text 589 43 gain;
#X obj 175 452 outlet~;
#X obj 306 455 outlet;
#X text 357 453 gain;
#X obj 424 455 outlet;
#X text 475 453 freq;
#X obj 153 345 gain;
#X floatatom 627 229 5 0 0 0 - - -;
#X msg 58 186 freq \$1;
#X obj 153 271 faustgen~ ../source/bubble;
#X msg 232 159 1;
#X msg 233 234 play \$1;
#X msg 254 210 0;
#X obj 252 188 pipe 5;
#X obj 94 91 scale 0 1 10 3000;
#X obj 237 99 bng 15 250 50 0 empty empty empty 17 7 0 10 -262144 -1
-1;
#X obj 236 70 metro 1000;
#X obj 307 31 inlet;
#X obj 391 34 inlet;
#X obj 524 451 outlet;
#X text 575 449 metro;
#X obj 390 62 scale 0 1 1 5000;
#X obj 586 93 loadbang;
#X msg 586 116 1;
#X connect 0 0 18 0;
#X connect 1 0 20 0;
#X connect 10 0 5 0;
#X connect 11 0 10 1;
#X connect 12 0 13 0;
#X connect 13 0 10 0;
#X connect 14 0 15 0;
#X connect 14 0 17 0;
#X connect 15 0 13 0;
#X connect 16 0 15 0;
#X connect 17 0 16 0;
#X connect 18 0 12 0;
#X connect 18 0 8 0;
#X connect 19 0 14 0;
#X connect 20 0 19 0;
#X connect 21 0 19 0;
#X connect 22 0 25 0;
#X connect 25 0 20 1;
#X connect 25 0 23 0;
#X connect 26 0 27 0;
#X connect 27 0 11 0;
#X connect 27 0 6 0;
#X restore 784 195 pd faust-bubble;
#X obj 784 50 vsl 15 128 0 1 0 0 empty empty empty 0 -9 0 10 -262144
-1 -1 0 1;
#X floatatom 910 228 5 0 0 0 - - -;
#X text 950 226 freq;
#X floatatom 832 228 5 0 0 0 - - -;
#X text 873 225 amp;
#X obj 901 51 vsl 15 128 0 1 0 0 empty empty empty 0 -9 0 10 -262144
-1 -1 0 1;
#X text 737 33 freq;
#X text 898 25 metro;
#X text 810 51 on/off;
#X floatatom 1007 232 5 0 0 0 - - -;
#X text 1048 230 metro;
#X obj 1131 64 tgl 40 0 empty empty empty 17 7 0 10 -262144 -1 -1 0
1;
#X obj 1178 76 bng 25 250 50 0 empty empty empty 17 7 0 10 -262144
-1 -1;
#N canvas 741 318 699 499 faust-bubble 0;
#X obj 93 61 inlet;
#X obj 236 35 inlet;
#X text 93 37 freq;
#X text 235 12 metro;
#X text 589 43 gain;
#X obj 175 452 outlet~;
#X obj 306 455 outlet;
#X text 357 453 gain;
#X obj 424 455 outlet;
#X text 475 453 freq;
#X obj 153 345 gain;
#X floatatom 627 229 5 0 0 0 - - -;
#X msg 58 186 freq \$1;
#X obj 153 271 faustgen~ ../source/bubble;
#X msg 232 159 1;
#X msg 233 234 play \$1;
#X msg 254 210 0;
#X obj 252 188 pipe 5;
#X obj 94 91 scale 0 1 10 3000;
#X obj 237 99 bng 15 250 50 0 empty empty empty 17 7 0 10 -262144 -1
-1;
#X obj 236 70 metro 1000;
#X obj 307 31 inlet;
#X obj 391 34 inlet;
#X obj 524 451 outlet;
#X text 575 449 metro;
#X obj 390 62 scale 0 1 1 5000;
#X obj 590 75 loadbang;
#X msg 590 95 1;
#X connect 0 0 18 0;
#X connect 1 0 20 0;
#X connect 10 0 5 0;
#X connect 11 0 10 1;
#X connect 12 0 13 0;
#X connect 13 0 10 0;
#X connect 14 0 15 0;
#X connect 14 0 17 0;
#X connect 15 0 13 0;
#X connect 16 0 15 0;
#X connect 17 0 16 0;
#X connect 18 0 12 0;
#X connect 18 0 8 0;
#X connect 19 0 14 0;
#X connect 20 0 19 0;
#X connect 21 0 19 0;
#X connect 22 0 25 0;
#X connect 25 0 20 1;
#X connect 25 0 23 0;
#X connect 26 0 27 0;
#X connect 27 0 11 0;
#X connect 27 0 6 0;
#X restore 1105 184 pd faust-bubble;
#X obj 1105 39 vsl 15 128 0 1 0 0 empty empty empty 0 -9 0 10 -262144
-1 -1 0 1;
#X floatatom 1231 217 5 0 0 0 - - -;
#X text 1271 215 freq;
#X floatatom 1153 217 5 0 0 0 - - -;
#X text 1194 214 amp;
#X obj 1222 40 vsl 15 128 0 1 0 0 empty empty empty 0 -9 0 10 -262144
-1 -1 0 1;
#X text 1058 22 freq;
#X text 1219 14 metro;
#X text 1131 40 on/off;
#X floatatom 1328 221 5 0 0 0 - - -;
#X text 1369 219 metro;
#X obj 825 697 VU~;
#X obj 894 696 VU~;
#X obj 74 254 send~ b1;
#X obj 444 259 send~ b2;
#X obj 781 253 send~ b3;
#X obj 1111 245 send~ b4;
#X obj 580 495 receive~ b1;
#X obj 579 520 receive~ b2;
#X obj 682 495 receive~ b3;
#X obj 681 520 receive~ b4;
#X obj 32 333 mTDelHarmo8;
#X obj 35 307 r mTctrl;
#N canvas 0 270 1440 559 valueInit 0;
#X obj 435 46 loadbang;
#X obj 435 88 t b b b b b b b b;
#X msg 956 189 \; mTctrl init \; mTctrl d-0 300 \; mTctrl d-1 425 \;
mTctrl d-2 800 \; mTctrl d-3 925 \; mTctrl d-4 1300 \; mTctrl d-5 1800
\; mTctrl d-6 2050 \; mTctrl d-7 2300 \;;
#X msg 830 190 \; mTctrl fd-0 0.99 \; mTctrl fd-1 0.99 \; mTctrl fd-2
0.99 \; mTctrl fd-3 0.99 \; mTctrl fd-4 0.99 \; mTctrl fd-5 0.99 \;
mTctrl fd-6 0.99 \; mTctrl fd-7 0.99 \;;
#X msg 716 190 \; mTctrl xvd-0 1 \; mTctrl xvd-1 1 \; mTctrl xvd-2
1 \; mTctrl xvd-3 1 \; mTctrl xvd-4 1 \; mTctrl xvd-5 1 \; mTctrl xvd-6
1 \; mTctrl xvd-7 1 \;;
#X msg 585 189 \; mTctrl tr-0 386 \; mTctrl tr-1 772 \; mTctrl tr-2
-386 \; mTctrl tr-3 180 \; mTctrl tr-4 386 \; mTctrl tr-5 -772 \; mTctrl
tr-6 -45 \; mTctrl tr-7 180 \;;
#X msg 355 191 \; mTctrl out-0 1 \; mTctrl out-1 1 \; mTctrl out-2
1 \; mTctrl out-3 1 \; mTctrl out-4 1 \; mTctrl out-5 1 \; mTctrl out-6
1 \; mTctrl out-7 1 \;;
#X msg 65 193 \; mTctrl r-0 1 \; mTctrl r-17 1 \; mTctrl r-34 1 \;
mTctrl r-51 1 \; mTctrl r-68 1 \; mTctrl r-85 1 \; mTctrl r102 1 \;
mTctrl r119 1 \; mTctrl r136 1 \; mTctrl r153 1 \; mTctrl r170 1 \;
mTctrl r187 1 \; mTctrl r-8 1 \; mTctrl r-25 1 \; mTctrl r-42 1 \;
mTctrl r-59 1 \;;
#X msg 470 191 \; mTctrl inp-0 1 \; mTctrl inp-1 1 \; mTctrl inp-2
1 \; mTctrl inp-3 1 \; mTctrl inp-4 1 \; mTctrl inp-5 1 \; mTctrl inp-6
1 \; mTctrl inp-7 1 \;;
#X msg 381 350 \; mTctrl out-0 0.5 \; mTctrl out-1 0.5 \; mTctrl out-2
0.5 \; mTctrl out-3 0.5 \; mTctrl out-4 0.5 \; mTctrl out-5 0.5 \;
mTctrl out-6 0.5 \; mTctrl out-7 0.5 \;;
#X msg 818 342 \; mTctrl fd-0 0.5 \; mTctrl fd-1 0.5 \; mTctrl fd-2
0.5 \; mTctrl fd-3 0.5 \; mTctrl fd-4 0.5 \; mTctrl fd-5 0.5 \; mTctrl
fd-6 0.5 \; mTctrl fd-7 0.5 \;;
#X msg 180 192 \; mTctrl tStretch 1 \; mTctrl hStretch 4 \; mTctrl
wHarmo 100 \; mTctrl smoothDuration 50 \;;
#X connect 0 0 1 0;
#X connect 1 0 7 0;
#X connect 1 1 11 0;
#X connect 1 2 9 0;
#X connect 1 3 8 0;
#X connect 1 4 5 0;
#X connect 1 5 4 0;
#X connect 1 6 10 0;
#X connect 1 7 2 0;
#X restore 90 290 pd valueInit;
#X obj 60 641 send~ harmo1;
#X obj 166 640 send~ harmo2;
#X obj 56 678 send~ harmo3;
#X obj 162 676 send~ harmo4;
#X obj 47 717 send~ harmo5;
#X obj 163 710 send~ harmo6;
#X obj 48 757 send~ harmo7;
#X obj 160 758 send~ harmo8;
#N canvas 56 277 793 288 osc 0;
#X obj 136 185 outlet;
#X floatatom 133 147 5 0 0 0 - - -;
#X floatatom 389 145 5 0 0 0 - - -;
#X floatatom 270 155 5 0 0 0 - - -;
#X floatatom 516 145 5 0 0 0 - - -;
#X floatatom 653 143 5 0 0 0 - - -;
#X obj 272 184 outlet;
#X obj 391 195 outlet;
#X obj 512 191 outlet;
#X obj 668 188 outlet;
#X obj 132 91 receive mosc;
#X obj 133 123 route /freq2;
#X obj 270 127 route /on2;
#X obj 389 121 route /bang2;
#X obj 516 120 route /smetro2;
#X obj 653 119 route /amp2;
#X connect 1 0 0 0;
#X connect 2 0 7 0;
#X connect 3 0 6 0;
#X connect 4 0 8 0;
#X connect 5 0 9 0;
#X connect 10 0 11 0;
#X connect 10 0 12 0;
#X connect 10 0 13 0;
#X connect 10 0 14 0;
#X connect 10 0 15 0;
#X connect 11 0 1 0;
#X connect 12 0 3 0;
#X connect 13 0 2 0;
#X connect 14 0 4 0;
#X connect 15 0 5 0;
#X restore 443 12 pd osc;
#N canvas 647 314 793 288 osc 0;
#X obj 136 185 outlet;
#X floatatom 133 147 5 0 0 0 - - -;
#X floatatom 389 145 5 0 0 0 - - -;
#X floatatom 270 155 5 0 0 0 - - -;
#X floatatom 516 145 5 0 0 0 - - -;
#X floatatom 653 143 5 0 0 0 - - -;
#X obj 272 184 outlet;
#X obj 391 195 outlet;
#X obj 512 191 outlet;
#X obj 668 188 outlet;
#X obj 133 99 receive mosc;
#X obj 133 123 route /freq3;
#X obj 270 127 route /on3;
#X obj 389 121 route /bang3;
#X obj 516 121 route /smetro3;
#X obj 653 119 route /amp3;
#X connect 1 0 0 0;
#X connect 2 0 7 0;
#X connect 3 0 6 0;
#X connect 4 0 8 0;
#X connect 5 0 9 0;
#X connect 10 0 11 0;
#X connect 10 0 12 0;
#X connect 10 0 13 0;
#X connect 10 0 14 0;
#X connect 10 0 15 0;
#X connect 11 0 1 0;
#X connect 12 0 3 0;
#X connect 13 0 2 0;
#X connect 14 0 4 0;
#X connect 15 0 5 0;
#X restore 782 11 pd osc;
#N canvas 647 314 793 288 osc 0;
#X obj 136 185 outlet;
#X floatatom 133 147 5 0 0 0 - - -;
#X floatatom 389 145 5 0 0 0 - - -;
#X floatatom 270 155 5 0 0 0 - - -;
#X floatatom 516 145 5 0 0 0 - - -;
#X floatatom 653 143 5 0 0 0 - - -;
#X obj 272 184 outlet;
#X obj 391 195 outlet;
#X obj 512 191 outlet;
#X obj 668 188 outlet;
#X obj 133 99 receive mosc;
#X obj 132 123 route /freq4;
#X obj 270 127 route /on4;
#X obj 389 121 route /bang4;
#X obj 516 121 route /smetro4;
#X obj 653 119 route /amp4;
#X connect 1 0 0 0;
#X connect 2 0 7 0;
#X connect 3 0 6 0;
#X connect 4 0 8 0;
#X connect 5 0 9 0;
#X connect 10 0 11 0;
#X connect 10 0 12 0;
#X connect 10 0 13 0;
#X connect 10 0 14 0;
#X connect 10 0 15 0;
#X connect 11 0 1 0;
#X connect 12 0 3 0;
#X connect 13 0 2 0;
#X connect 14 0 4 0;
#X connect 15 0 5 0;
#X restore 1103 7 pd osc;
#X obj 629 282 adc~ 1 2;
#X obj 633 333 VU~;
#X obj 726 329 VU~;
#X obj 628 304 send~ mic1;
#X obj 723 306 send~ mic2;
#X obj 207 281 receive~ mic1;
#X obj 321 282 receive~ mic2;
#X obj 783 494 receive~ harmo1;
#X obj 782 519 receive~ harmo2;
#X obj 899 495 receive~ harmo3;
#X obj 898 520 receive~ harmo4;
#X obj 1016 497 receive~ harmo5;
#X obj 1013 520 receive~ harmo6;
#X obj 1135 496 receive~ harmo7;
#X obj 1132 519 receive~ harmo8;
#X msg 598 788 \; pd dsp 0 \;;
#X msg 597 727 \; pd dsp 1 \;;
#X obj 1256 367 loadbang;
#X obj 660 689 dac~ 1 2 3 4;
#X obj 725 625 gain;
#X obj 776 627 gain;
#X msg 1257 389 0.09;
#X obj 960 697 VU~;
#X obj 1029 696 VU~;
#X connect 0 0 63 0;
#X connect 0 0 104 1;
#X connect 1 0 3 1;
#X connect 2 0 3 2;
#X connect 3 0 64 0;
#X connect 3 1 8 0;
#X connect 3 2 6 0;
#X connect 3 3 17 0;
#X connect 4 0 5 0;
#X connect 4 1 1 0;
#X connect 4 2 2 0;
#X connect 4 3 13 0;
#X connect 5 0 3 0;
#X connect 10 0 12 0;
#X connect 10 0 19 1;
#X connect 10 0 0 1;
#X connect 10 0 105 1;
#X connect 10 0 106 1;
#X connect 13 0 3 3;
#X connect 19 0 62 0;
#X connect 19 0 104 0;
#X connect 20 0 22 1;
#X connect 21 0 22 2;
#X connect 22 0 65 0;
#X connect 22 1 26 0;
#X connect 22 2 24 0;
#X connect 22 3 32 0;
#X connect 23 0 22 0;
#X connect 28 0 22 3;
#X connect 34 0 36 1;
#X connect 35 0 36 2;
#X connect 36 0 66 0;
#X connect 36 1 40 0;
#X connect 36 2 38 0;
#X connect 36 3 46 0;
#X connect 37 0 36 0;
#X connect 42 0 36 3;
#X connect 48 0 50 1;
#X connect 49 0 50 2;
#X connect 50 0 67 0;
#X connect 50 1 54 0;
#X connect 50 2 52 0;
#X connect 50 3 60 0;
#X connect 51 0 50 0;
#X connect 56 0 50 3;
#X connect 68 0 19 0;
#X connect 69 0 0 0;
#X connect 70 0 105 0;
#X connect 71 0 106 0;
#X connect 72 1 75 0;
#X connect 72 2 76 0;
#X connect 72 3 77 0;
#X connect 72 4 78 0;
#X connect 72 5 79 0;
#X connect 72 6 80 0;
#X connect 72 7 81 0;
#X connect 72 8 82 0;
#X connect 73 0 72 0;
#X connect 83 0 23 0;
#X connect 83 1 20 0;
#X connect 83 2 21 0;
#X connect 83 3 28 0;
#X connect 84 0 37 0;
#X connect 84 1 34 0;
#X connect 84 2 35 0;
#X connect 84 3 42 0;
#X connect 85 0 51 0;
#X connect 85 1 48 0;
#X connect 85 2 49 0;
#X connect 85 3 56 0;
#X connect 86 0 89 0;
#X connect 86 0 87 0;
#X connect 86 1 90 0;
#X connect 86 1 88 0;
#X connect 91 0 72 1;
#X connect 91 0 72 3;
#X connect 91 0 72 5;
#X connect 91 0 72 7;
#X connect 92 0 72 2;
#X connect 92 0 72 4;
#X connect 92 0 72 6;
#X connect 93 0 19 0;
#X connect 94 0 0 0;
#X connect 95 0 105 0;
#X connect 96 0 106 0;
#X connect 97 0 19 0;
#X connect 98 0 0 0;
#X connect 99 0 106 0;
#X connect 100 0 106 0;
#X connect 103 0 107 0;
#X connect 105 0 108 0;
#X connect 105 0 104 0;
#X connect 106 0 109 0;
#X connect 106 0 104 1;
#X connect 107 0 10 0;
