#N canvas 586 117 611 518 12;
#X floatatom 115 194 5 0 0 0 - - -;
#X obj 220 329 gain;
#X obj 305 340 VU~;
#X obj 449 111 vsl 15 128 0 127 0 0 empty empty empty 0 -9 0 10 -262144
-1 -1 12700 1;
#X obj 448 249 / 127;
#X floatatom 448 273 5 0 0 0 - - -;
#X msg 115 223 freq \$1;
#X msg 115 168 600;
#X obj 220 255 faustgen~ ../source/bubble;
#X msg 299 143 1;
#X msg 300 218 play \$1;
#X msg 321 194 0;
#X obj 299 35 tgl 15 0 empty empty empty 17 7 0 10 -262144 -1 -1 0
1;
#X obj 300 84 bng 15 250 50 0 empty empty empty 17 7 0 10 -262144 -1
-1;
#X obj 319 172 pipe 5;
#X obj 216 457 dac~ 1 2;
#X obj 299 55 metro 1000;
#X obj 455 301 adc~ 10;
#X obj 460 331 gain;
#X obj 545 135 vsl 15 128 0 127 0 0 empty empty empty 0 -9 0 10 -262144
-1 -1 12700 1;
#X obj 544 273 / 127;
#X floatatom 544 297 5 0 0 0 - - -;
#X obj 460 363 VU~;
#X floatatom 324 18 5 0 0 0 - - -;
#X connect 0 0 6 0;
#X connect 1 0 2 0;
#X connect 1 0 15 0;
#X connect 1 0 15 1;
#X connect 3 0 4 0;
#X connect 4 0 5 0;
#X connect 5 0 1 1;
#X connect 6 0 8 0;
#X connect 7 0 0 0;
#X connect 8 0 1 0;
#X connect 9 0 10 0;
#X connect 9 0 14 0;
#X connect 10 0 8 0;
#X connect 11 0 10 0;
#X connect 12 0 16 0;
#X connect 13 0 9 0;
#X connect 14 0 11 0;
#X connect 16 0 13 0;
#X connect 17 0 18 0;
#X connect 18 0 22 0;
#X connect 18 0 15 1;
#X connect 18 0 15 0;
#X connect 19 0 20 0;
#X connect 20 0 21 0;
#X connect 21 0 18 1;
#X connect 23 0 16 1;
