#N canvas 1946 154 1159 720 12;
#X obj 524 872 gain;
#X obj 109 187 gain;
#X obj 105 62 inlet~;
#X obj 188 62 inlet~;
#X obj 107 305 outlet~;
#X obj 243 308 outlet~;
#X obj 149 187 gain;
#X obj 156 125 tgl 15 0 empty empty empty 17 7 0 10 -262144 -1 -1 0
1;
#X obj 156 106 tgl 15 0 empty empty empty 17 7 0 10 -262144 -1 -1 0
1;
#X obj 174 125 tgl 15 0 empty empty empty 17 7 0 10 -262144 -1 -1 0
1;
#X obj 174 106 tgl 15 0 empty empty empty 17 7 0 10 -262144 -1 -1 0
1;
#X obj 192 125 tgl 15 0 empty empty empty 17 7 0 10 -262144 -1 -1 0
1;
#X obj 192 106 tgl 15 0 empty empty empty 17 7 0 10 -262144 -1 -1 0
1;
#X obj 210 125 tgl 15 0 empty empty empty 17 7 0 10 -262144 -1 -1 1
1;
#X obj 210 106 tgl 15 0 empty empty empty 17 7 0 10 -262144 -1 -1 0
1;
#X obj 192 187 gain;
#X obj 234 187 gain;
#X obj 273 187 gain;
#X obj 313 186 gain;
#X obj 273 62 inlet~;
#X obj 356 62 inlet~;
#X obj 357 187 gain;
#X obj 397 186 gain;
#N canvas 1635 315 1188 379 osc 0;
#X obj 136 185 outlet;
#X floatatom 133 147 5 0 0 0 - - -;
#X floatatom 389 145 5 0 0 0 - - -;
#X floatatom 270 155 5 0 0 0 - - -;
#X floatatom 516 145 5 0 0 0 - - -;
#X floatatom 653 143 5 0 0 0 - - -;
#X obj 272 184 outlet;
#X obj 391 195 outlet;
#X obj 512 191 outlet;
#X obj 668 188 outlet;
#X obj 134 71 receive mosc;
#X obj 133 123 route /out1/x;
#X obj 270 127 route /out2/x;
#X obj 389 120 route /out3/x;
#X obj 516 121 route /out4/x;
#X obj 653 120 route /out5/x;
#X floatatom 783 146 5 0 0 0 - - -;
#X floatatom 920 144 5 0 0 0 - - -;
#X obj 779 192 outlet;
#X obj 935 189 outlet;
#X obj 783 122 route /out6/x;
#X obj 920 121 route /out7/x;
#X floatatom 1030 145 5 0 0 0 - - -;
#X obj 1045 190 outlet;
#X obj 1030 122 route /out8/x;
#X connect 1 0 0 0;
#X connect 2 0 7 0;
#X connect 3 0 6 0;
#X connect 4 0 8 0;
#X connect 5 0 9 0;
#X connect 10 0 11 0;
#X connect 10 0 12 0;
#X connect 10 0 13 0;
#X connect 10 0 14 0;
#X connect 10 0 15 0;
#X connect 10 0 20 0;
#X connect 10 0 21 0;
#X connect 10 0 24 0;
#X connect 11 0 1 0;
#X connect 12 0 3 0;
#X connect 13 0 2 0;
#X connect 14 0 4 0;
#X connect 15 0 5 0;
#X connect 16 0 18 0;
#X connect 17 0 19 0;
#X connect 20 0 16 0;
#X connect 21 0 17 0;
#X connect 22 0 23 0;
#X connect 24 0 22 0;
#X restore 112 17 pd osc;
#X connect 1 0 4 0;
#X connect 2 0 1 0;
#X connect 2 0 6 0;
#X connect 3 0 15 0;
#X connect 3 0 16 0;
#X connect 6 0 5 0;
#X connect 7 0 6 1;
#X connect 8 0 1 1;
#X connect 9 0 16 1;
#X connect 10 0 15 1;
#X connect 11 0 18 1;
#X connect 12 0 17 1;
#X connect 13 0 22 1;
#X connect 14 0 21 1;
#X connect 15 0 4 0;
#X connect 16 0 5 0;
#X connect 17 0 4 0;
#X connect 18 0 5 0;
#X connect 19 0 17 0;
#X connect 19 0 18 0;
#X connect 20 0 21 0;
#X connect 20 0 22 0;
#X connect 21 0 4 0;
#X connect 22 0 5 0;
#X connect 23 0 8 0;
#X connect 23 1 7 0;
#X connect 23 2 10 0;
#X connect 23 3 9 0;
#X connect 23 4 12 0;
#X connect 23 5 11 0;
#X connect 23 6 14 0;
#X connect 23 7 13 0;
#X coords 0 -1 1 1 90 50 2 150 100;
